<svg fill="#000000" xmlns="http://www.w3.org/2000/svg"  viewBox="0 0 64 64" width="48px" height="48px"><path d="M 32 10 C 19.85 10 10 19.85 10 32 C 10 44.15 19.85 54 32 54 C 44.15 54 54 44.15 54 32 C 54 28.81 53.319844 25.769063 52.089844 23.039062 L 49.359375 27.259766 C 49.779375 28.769766 50 30.36 50 32 C 50 41.94 41.94 50 32 50 C 22.06 50 14 41.94 14 32 C 14 22.06 22.06 14 32 14 C 36.33 14 40.300391 15.530312 43.400391 18.070312 L 45.580078 14.689453 C 41.840078 11.749453 37.13 10 32 10 z M 49.962891 15.064453 C 49.321104 15.077373 48.695937 15.397188 48.320312 15.976562 L 33.798828 38.421875 L 24.777344 28.085938 C 24.052344 27.254938 22.789078 27.165578 21.955078 27.892578 C 21.123078 28.618578 21.036672 29.882844 21.763672 30.714844 L 32.527344 43.050781 C 32.908344 43.487781 33.460156 43.736328 34.035156 43.736328 C 34.083156 43.736328 34.129734 43.735422 34.177734 43.732422 C 34.804734 43.687422 35.373844 43.349266 35.714844 42.822266 L 51.679688 18.150391 C 52.279688 17.222391 52.014891 15.984766 51.087891 15.384766 C 50.739891 15.159766 50.347963 15.056701 49.962891 15.064453 z"/></svg>